<svg xmlns="http://www.w3.org/2000/svg" width="1200" height="700" viewBox="0 0 1200 700" role="img" aria-labelledby="title desc">
  <title id="title">ShadeMates Android architecture</title>
  <desc id="desc">Jetpack Compose screens observe ViewModels and repositories, which connect to local storage, Retrofit services and Mapbox. Retrofit connects to the project backend and OpenWeather, while the backend connects to project datasets.</desc>
  <defs>
    <linearGradient id="bg" x1="0" y1="0" x2="1" y2="1">
      <stop offset="0" stop-color="#f8f9f6"/>
      <stop offset="1" stop-color="#edf2ee"/>
    </linearGradient>
    <linearGradient id="app" x1="0" y1="0" x2="1" y2="1">
      <stop offset="0" stop-color="#315f4c"/>
      <stop offset="1" stop-color="#497b5f"/>
    </linearGradient>
    <filter id="shadow" x="-20%" y="-20%" width="140%" height="160%">
      <feDropShadow dx="0" dy="5" stdDeviation="7" flood-color="#163226" flood-opacity="0.13"/>
    </filter>
    <marker id="arrow" markerWidth="10" markerHeight="10" refX="8" refY="5" orient="auto" markerUnits="strokeWidth">
      <path d="M0,0 L10,5 L0,10 Z" fill="#829a8b"/>
    </marker>
  </defs>
  <rect width="1200" height="700" rx="26" fill="url(#bg)"/>
  <text x="60" y="58" fill="#244536" font-family="Inter, Segoe UI, Arial, sans-serif" font-size="26" font-weight="700">Android client</text>
  <text x="804" y="58" fill="#244536" font-family="Inter, Segoe UI, Arial, sans-serif" font-size="26" font-weight="700">External services</text>

  <g fill="none" stroke="#829a8b" stroke-width="4" marker-end="url(#arrow)">
    <path d="M357 151 L357 194"/>
    <path d="M357 282 L357 325"/>
    <path d="M357 413 C357 465 188 455 188 504"/>
    <path d="M357 413 L357 504"/>
    <path d="M357 413 C357 465 526 455 526 504"/>
    <path d="M657 548 C724 548 713 191 790 191"/>
    <path d="M657 548 C724 548 713 507 790 507"/>
    <path d="M980 233 L980 278"/>
  </g>

  <g filter="url(#shadow)" font-family="Inter, Segoe UI, Arial, sans-serif">
    <rect x="148" y="96" width="418" height="56" rx="16" fill="#ffffff" stroke="#cdd9d1" stroke-width="2"/>
    <rect x="148" y="194" width="418" height="88" rx="18" fill="url(#app)"/>
    <rect x="148" y="325" width="418" height="88" rx="18" fill="#e8f0ea" stroke="#9ab3a3" stroke-width="2"/>

    <g text-anchor="middle" font-weight="700">
      <text x="357" y="132" fill="#244536" font-size="22">Jetpack Compose screens</text>
      <text x="357" y="248" fill="#ffffff" font-size="25">ViewModels + StateFlow</text>
      <text x="357" y="379" fill="#315f4c" font-size="25">Repository layer</text>
    </g>

    <g fill="#ffffff" stroke="#cdd9d1" stroke-width="2">
      <rect x="60" y="504" width="256" height="88" rx="18"/>
      <rect x="335" y="504" width="256" height="88" rx="18"/>
      <rect x="610" y="504" width="256" height="88" rx="18"/>
    </g>
    <g fill="#244536" text-anchor="middle" font-size="21" font-weight="650">
      <text x="188" y="542">Room +</text>
      <text x="188" y="570">SharedPreferences</text>
      <text x="463" y="542">Retrofit</text>
      <text x="463" y="570">service interfaces</text>
      <text x="738" y="542">Mapbox Maps,</text>
      <text x="738" y="570">Search + Directions</text>
    </g>

    <g fill="#fffaf0" stroke="#e3c771" stroke-width="2">
      <rect x="790" y="136" width="380" height="98" rx="20"/>
      <rect x="790" y="294" width="380" height="98" rx="20"/>
      <rect x="790" y="452" width="380" height="98" rx="20"/>
    </g>
    <g fill="#554619" text-anchor="middle" font-weight="700">
      <text x="980" y="177" font-size="22">AWS API Gateway + Lambda</text>
      <text x="980" y="207" font-size="19" font-weight="500">project backend</text>
      <text x="980" y="352" font-size="22">RDS + project datasets</text>
      <text x="980" y="510" font-size="22">OpenWeather</text>
    </g>
  </g>

  <g font-family="Inter, Segoe UI, Arial, sans-serif" font-size="17" fill="#66756c">
    <text x="60" y="644">UI state and data access stay separated so features can degrade gracefully when a service is unavailable.</text>
    <rect x="60" y="664" width="20" height="4" rx="2" fill="#829a8b"/>
    <text x="92" y="672">Directional data dependency</text>
  </g>
</svg>
